<mxfile host="Electron" agent="Mozilla/5.0 (Windows NT 10.0; Win64; x64) AppleWebKit/537.36 (KHTML, like Gecko) draw.io/26.0.4 Chrome/128.0.6613.186 Electron/32.2.5 Safari/537.36" version="26.0.4">
  <diagram name="Páxina-1" id="bZwNnvmaQ7MA14kg0_U4">
    <mxGraphModel dx="757" dy="681" grid="1" gridSize="10" guides="1" tooltips="1" connect="1" arrows="1" fold="1" page="1" pageScale="1" pageWidth="827" pageHeight="1169" math="0" shadow="0">
      <root>
        <mxCell id="0" />
        <mxCell id="1" parent="0" />
        <mxCell id="yvCoWW8B-aWygzDLnjZ9-17" style="edgeStyle=orthogonalEdgeStyle;rounded=0;orthogonalLoop=1;jettySize=auto;html=1;entryX=0.5;entryY=0;entryDx=0;entryDy=0;startSize=12;endSize=12;curved=1;endArrow=open;endFill=0;" edge="1" parent="1" source="mqO6VLUFzkicVr5HQHHQ-3" target="yvCoWW8B-aWygzDLnjZ9-5">
          <mxGeometry relative="1" as="geometry" />
        </mxCell>
        <mxCell id="yvCoWW8B-aWygzDLnjZ9-18" value="asociación" style="edgeLabel;html=1;align=center;verticalAlign=middle;resizable=0;points=[];" vertex="1" connectable="0" parent="yvCoWW8B-aWygzDLnjZ9-17">
          <mxGeometry x="0.1905" relative="1" as="geometry">
            <mxPoint as="offset" />
          </mxGeometry>
        </mxCell>
        <mxCell id="mqO6VLUFzkicVr5HQHHQ-3" value="ClaseA" style="swimlane;fontStyle=1;align=center;verticalAlign=top;childLayout=stackLayout;horizontal=1;startSize=26;horizontalStack=0;resizeParent=1;resizeParentMax=0;resizeLast=0;collapsible=1;marginBottom=0;whiteSpace=wrap;html=1;" parent="1" vertex="1">
          <mxGeometry x="280" y="440" width="250" height="90" as="geometry" />
        </mxCell>
        <mxCell id="yvCoWW8B-aWygzDLnjZ9-16" value="-nombre: String" style="text;strokeColor=none;fillColor=none;align=left;verticalAlign=top;spacingLeft=4;spacingRight=4;overflow=hidden;rotatable=0;points=[[0,0.5],[1,0.5]];portConstraint=eastwest;whiteSpace=wrap;html=1;" vertex="1" parent="mqO6VLUFzkicVr5HQHHQ-3">
          <mxGeometry y="26" width="250" height="26" as="geometry" />
        </mxCell>
        <mxCell id="mqO6VLUFzkicVr5HQHHQ-5" value="" style="line;strokeWidth=1;fillColor=none;align=left;verticalAlign=middle;spacingTop=-1;spacingLeft=3;spacingRight=3;rotatable=0;labelPosition=right;points=[];portConstraint=eastwest;strokeColor=inherit;" parent="mqO6VLUFzkicVr5HQHHQ-3" vertex="1">
          <mxGeometry y="52" width="250" height="8" as="geometry" />
        </mxCell>
        <mxCell id="yvCoWW8B-aWygzDLnjZ9-15" value="+cambiarNombre(nombre: String): void" style="text;strokeColor=none;fillColor=none;align=left;verticalAlign=top;spacingLeft=4;spacingRight=4;overflow=hidden;rotatable=0;points=[[0,0.5],[1,0.5]];portConstraint=eastwest;whiteSpace=wrap;html=1;" vertex="1" parent="mqO6VLUFzkicVr5HQHHQ-3">
          <mxGeometry y="60" width="250" height="30" as="geometry" />
        </mxCell>
        <mxCell id="yvCoWW8B-aWygzDLnjZ9-5" value="ClaseB" style="swimlane;fontStyle=1;align=center;verticalAlign=top;childLayout=stackLayout;horizontal=1;startSize=26;horizontalStack=0;resizeParent=1;resizeParentMax=0;resizeLast=0;collapsible=1;marginBottom=0;whiteSpace=wrap;html=1;" vertex="1" parent="1">
          <mxGeometry x="130" y="640" width="110" height="34" as="geometry" />
        </mxCell>
        <mxCell id="yvCoWW8B-aWygzDLnjZ9-6" value="" style="line;strokeWidth=1;fillColor=none;align=left;verticalAlign=middle;spacingTop=-1;spacingLeft=3;spacingRight=3;rotatable=0;labelPosition=right;points=[];portConstraint=eastwest;strokeColor=inherit;" vertex="1" parent="yvCoWW8B-aWygzDLnjZ9-5">
          <mxGeometry y="26" width="110" height="8" as="geometry" />
        </mxCell>
        <mxCell id="yvCoWW8B-aWygzDLnjZ9-7" value="ClaseC" style="swimlane;fontStyle=1;align=center;verticalAlign=top;childLayout=stackLayout;horizontal=1;startSize=26;horizontalStack=0;resizeParent=1;resizeParentMax=0;resizeLast=0;collapsible=1;marginBottom=0;whiteSpace=wrap;html=1;" vertex="1" parent="1">
          <mxGeometry x="271" y="640" width="110" height="34" as="geometry" />
        </mxCell>
        <mxCell id="yvCoWW8B-aWygzDLnjZ9-8" value="" style="line;strokeWidth=1;fillColor=none;align=left;verticalAlign=middle;spacingTop=-1;spacingLeft=3;spacingRight=3;rotatable=0;labelPosition=right;points=[];portConstraint=eastwest;strokeColor=inherit;" vertex="1" parent="yvCoWW8B-aWygzDLnjZ9-7">
          <mxGeometry y="26" width="110" height="8" as="geometry" />
        </mxCell>
        <mxCell id="yvCoWW8B-aWygzDLnjZ9-9" value="ClaseD" style="swimlane;fontStyle=1;align=center;verticalAlign=top;childLayout=stackLayout;horizontal=1;startSize=26;horizontalStack=0;resizeParent=1;resizeParentMax=0;resizeLast=0;collapsible=1;marginBottom=0;whiteSpace=wrap;html=1;" vertex="1" parent="1">
          <mxGeometry x="414" y="640" width="110" height="34" as="geometry" />
        </mxCell>
        <mxCell id="yvCoWW8B-aWygzDLnjZ9-10" value="" style="line;strokeWidth=1;fillColor=none;align=left;verticalAlign=middle;spacingTop=-1;spacingLeft=3;spacingRight=3;rotatable=0;labelPosition=right;points=[];portConstraint=eastwest;strokeColor=inherit;" vertex="1" parent="yvCoWW8B-aWygzDLnjZ9-9">
          <mxGeometry y="26" width="110" height="8" as="geometry" />
        </mxCell>
        <mxCell id="yvCoWW8B-aWygzDLnjZ9-23" style="edgeStyle=orthogonalEdgeStyle;rounded=0;orthogonalLoop=1;jettySize=auto;html=1;entryX=1;entryY=0.5;entryDx=0;entryDy=0;curved=1;endArrow=block;endFill=0;startSize=12;endSize=12;exitX=0.25;exitY=0;exitDx=0;exitDy=0;" edge="1" parent="1" source="yvCoWW8B-aWygzDLnjZ9-13" target="yvCoWW8B-aWygzDLnjZ9-16">
          <mxGeometry relative="1" as="geometry" />
        </mxCell>
        <mxCell id="yvCoWW8B-aWygzDLnjZ9-24" value="herencia" style="edgeLabel;html=1;align=center;verticalAlign=middle;resizable=0;points=[];" vertex="1" connectable="0" parent="yvCoWW8B-aWygzDLnjZ9-23">
          <mxGeometry x="-0.3754" y="2" relative="1" as="geometry">
            <mxPoint as="offset" />
          </mxGeometry>
        </mxCell>
        <mxCell id="yvCoWW8B-aWygzDLnjZ9-13" value="ClaseE" style="swimlane;fontStyle=1;align=center;verticalAlign=top;childLayout=stackLayout;horizontal=1;startSize=26;horizontalStack=0;resizeParent=1;resizeParentMax=0;resizeLast=0;collapsible=1;marginBottom=0;whiteSpace=wrap;html=1;" vertex="1" parent="1">
          <mxGeometry x="560" y="640" width="110" height="34" as="geometry" />
        </mxCell>
        <mxCell id="yvCoWW8B-aWygzDLnjZ9-14" value="" style="line;strokeWidth=1;fillColor=none;align=left;verticalAlign=middle;spacingTop=-1;spacingLeft=3;spacingRight=3;rotatable=0;labelPosition=right;points=[];portConstraint=eastwest;strokeColor=inherit;" vertex="1" parent="yvCoWW8B-aWygzDLnjZ9-13">
          <mxGeometry y="26" width="110" height="8" as="geometry" />
        </mxCell>
        <mxCell id="yvCoWW8B-aWygzDLnjZ9-19" style="edgeStyle=orthogonalEdgeStyle;rounded=0;orthogonalLoop=1;jettySize=auto;html=1;entryX=0.184;entryY=0.989;entryDx=0;entryDy=0;entryPerimeter=0;curved=1;endArrow=diamondThin;endFill=0;startSize=12;endSize=12;" edge="1" parent="1" source="yvCoWW8B-aWygzDLnjZ9-7" target="yvCoWW8B-aWygzDLnjZ9-15">
          <mxGeometry relative="1" as="geometry" />
        </mxCell>
        <mxCell id="yvCoWW8B-aWygzDLnjZ9-20" value="agregación" style="edgeLabel;html=1;align=center;verticalAlign=middle;resizable=0;points=[];" vertex="1" connectable="0" parent="yvCoWW8B-aWygzDLnjZ9-19">
          <mxGeometry x="0.1887" y="-4" relative="1" as="geometry">
            <mxPoint x="-4" y="11" as="offset" />
          </mxGeometry>
        </mxCell>
        <mxCell id="yvCoWW8B-aWygzDLnjZ9-21" style="edgeStyle=orthogonalEdgeStyle;rounded=0;orthogonalLoop=1;jettySize=auto;html=1;entryX=0.758;entryY=1.02;entryDx=0;entryDy=0;entryPerimeter=0;curved=1;startSize=12;endSize=12;endArrow=diamondThin;endFill=1;" edge="1" parent="1" source="yvCoWW8B-aWygzDLnjZ9-9" target="yvCoWW8B-aWygzDLnjZ9-15">
          <mxGeometry relative="1" as="geometry" />
        </mxCell>
        <mxCell id="yvCoWW8B-aWygzDLnjZ9-22" value="composición" style="edgeLabel;html=1;align=center;verticalAlign=middle;resizable=0;points=[];" vertex="1" connectable="0" parent="yvCoWW8B-aWygzDLnjZ9-21">
          <mxGeometry x="-0.3189" y="-3" relative="1" as="geometry">
            <mxPoint as="offset" />
          </mxGeometry>
        </mxCell>
        <mxCell id="yvCoWW8B-aWygzDLnjZ9-25" value="&amp;lt;&amp;lt;interface&amp;gt;&amp;gt;&lt;div&gt;Interfaz&lt;/div&gt;" style="swimlane;fontStyle=1;align=center;verticalAlign=top;childLayout=stackLayout;horizontal=1;startSize=40;horizontalStack=0;resizeParent=1;resizeParentMax=0;resizeLast=0;collapsible=1;marginBottom=0;whiteSpace=wrap;html=1;" vertex="1" parent="1">
          <mxGeometry x="630" y="450" width="110" height="48" as="geometry" />
        </mxCell>
        <mxCell id="yvCoWW8B-aWygzDLnjZ9-26" value="" style="line;strokeWidth=1;fillColor=none;align=left;verticalAlign=middle;spacingTop=-1;spacingLeft=3;spacingRight=3;rotatable=0;labelPosition=right;points=[];portConstraint=eastwest;strokeColor=inherit;" vertex="1" parent="yvCoWW8B-aWygzDLnjZ9-25">
          <mxGeometry y="40" width="110" height="8" as="geometry" />
        </mxCell>
        <mxCell id="yvCoWW8B-aWygzDLnjZ9-27" style="edgeStyle=orthogonalEdgeStyle;rounded=0;orthogonalLoop=1;jettySize=auto;html=1;entryX=0.5;entryY=1;entryDx=0;entryDy=0;curved=1;endArrow=block;endFill=0;startSize=12;endSize=12;exitX=0.75;exitY=0;exitDx=0;exitDy=0;dashed=1;" edge="1" parent="1" source="yvCoWW8B-aWygzDLnjZ9-13" target="yvCoWW8B-aWygzDLnjZ9-25">
          <mxGeometry relative="1" as="geometry" />
        </mxCell>
        <mxCell id="yvCoWW8B-aWygzDLnjZ9-28" value="realización" style="edgeLabel;html=1;align=center;verticalAlign=middle;resizable=0;points=[];" vertex="1" connectable="0" parent="yvCoWW8B-aWygzDLnjZ9-27">
          <mxGeometry x="-0.3754" y="2" relative="1" as="geometry">
            <mxPoint x="20" y="-12" as="offset" />
          </mxGeometry>
        </mxCell>
        <mxCell id="yvCoWW8B-aWygzDLnjZ9-31" style="edgeStyle=orthogonalEdgeStyle;rounded=0;orthogonalLoop=1;jettySize=auto;html=1;dashed=1;endArrow=open;endFill=0;startSize=12;endSize=12;" edge="1" parent="1" source="yvCoWW8B-aWygzDLnjZ9-29" target="mqO6VLUFzkicVr5HQHHQ-3">
          <mxGeometry relative="1" as="geometry" />
        </mxCell>
        <mxCell id="yvCoWW8B-aWygzDLnjZ9-29" value="ClaseF" style="swimlane;fontStyle=1;align=center;verticalAlign=top;childLayout=stackLayout;horizontal=1;startSize=26;horizontalStack=0;resizeParent=1;resizeParentMax=0;resizeLast=0;collapsible=1;marginBottom=0;whiteSpace=wrap;html=1;" vertex="1" parent="1">
          <mxGeometry x="350" y="290" width="110" height="34" as="geometry" />
        </mxCell>
        <mxCell id="yvCoWW8B-aWygzDLnjZ9-30" value="" style="line;strokeWidth=1;fillColor=none;align=left;verticalAlign=middle;spacingTop=-1;spacingLeft=3;spacingRight=3;rotatable=0;labelPosition=right;points=[];portConstraint=eastwest;strokeColor=inherit;" vertex="1" parent="yvCoWW8B-aWygzDLnjZ9-29">
          <mxGeometry y="26" width="110" height="8" as="geometry" />
        </mxCell>
      </root>
    </mxGraphModel>
  </diagram>
</mxfile>
